<svg xmlns="http://www.w3.org/2000/svg" version="1.1" xmlns:xlink="http://www.w3.org/1999/xlink" width="175" height="45" x="0" y="0" viewBox="0 0 172 45" xml:space="preserve">
    <g fill="#E64445" class="icon-text-wrapper icon-svg-group iconsvg"><g class="iconsvg-imagesvg"><g><rect fill="#E64445" fill-opacity="0" stroke-width="2" x="0" y="0" width="45" height="44.977511244377816" class="image-rect"></rect> <svg x="0" y="0" width="45" height="44.977511244377816"><svg xmlns="http://www.w3.org/2000/svg" viewBox="-0.003181284759193659 -0.00003290473250672221 100.0498275756836 100.00003051757812"><defs><linearGradient id="ab5d0692a-88af-4d58-8bd9-0cfa42cbb6b8" x1="78.09" y1="64.14" x2="24.88" y2="10.93" gradientUnits="userSpaceOnUse"><stop offset="0" stop-color="#e50040"></stop><stop offset="1" stop-color="#ebf855"></stop></linearGradient></defs><g fill-rule="evenodd"><path d="M65.43 2.43A49.84 49.84 0 0 0 50 0c-1.35 0-2.69.05-4 .16A50 50 0 0 0 50 100a50.79 50.79 0 0 0 10.31-1.06 50 50 0 0 0 5.12-96.51zM50 79.86a29.86 29.86 0 1 1 0-59.72h1.26A29.88 29.88 0 0 1 79 42.76a30.28 30.28 0 0 1 .86 7.24A29.86 29.86 0 0 1 50 79.86z" fill="#e9a316" opacity=".8"></path><path d="M79 42.76c-9-8.94-22.49-10.09-26.49-18.16a12.58 12.58 0 0 1-1.25-4.43C50.51 12.18 57 3.6 65.43 2.43A49.84 49.84 0 0 0 50 0c-1.35 0-2.69.05-4 .16a49.91 49.91 0 0 0-10.37 1.93 22.16 22.16 0 0 0-10.12 30.82l.26.45c5.81 9.9 33.46 11 40 22.16 3.79 6.5-1.09 15.79-6.66 19.8-4.11 2.94-9.28 4.08-14.89 4A29.9 29.9 0 0 0 79 42.76z" fill="url(#ab5d0692a-88af-4d58-8bd9-0cfa42cbb6b8)"></path><path d="M44.19 79.3C29 79 10.55 69.67 1.69 62.92A50 50 0 0 0 50 100a50.79 50.79 0 0 0 10.31-1.06c20.87-4.6 31.82-26.62 24.89-46.24a26.09 26.09 0 0 0-6.2-9.94 30.22 30.22 0 0 1 .86 7.24 29.91 29.91 0 0 1-35.67 29.3" fill="#e50040" opacity=".2"></path><path d="M20.14 50a29.75 29.75 0 0 1 5.37-17.09A22.16 22.16 0 0 1 35.63 2.09 50.06 50.06 0 0 0 1.69 62.92C10.55 69.67 29 79 44.19 79.3a29.88 29.88 0 0 1-24-29.3" fill="#e50040" opacity=".8"></path></g></svg></svg> <!----></g></g> <g transform="translate(53,10.716920852661133)"><g data-gra="path-name" fill-rule="" class="tp-name iconsvg-namesvg"><g><g><path d="M4.28-2.56C6.21-2.56 7.78-4.14 7.78-6.07 7.78-8 6.21-9.58 4.28-9.58 2.35-9.58 0.77-8 0.77-6.07 0.77-4.14 2.35-2.56 4.28-2.56ZM4.28-8.01C5.36-8.01 6.22-7.15 6.22-6.07 6.22-4.99 5.36-4.13 4.28-4.13 3.2-4.13 2.33-4.99 2.33-6.07 2.33-7.15 3.2-8.01 4.28-8.01ZM7.35-1.56L1.12-1.56 1.12 0 7.35 0ZM12.88-2.56C14.81-2.56 16.39-4.14 16.39-6.07 16.39-8 14.81-9.58 12.88-9.58 10.95-9.58 9.38-8 9.38-6.07 9.38-4.14 10.95-2.56 12.88-2.56ZM12.88-8.01C13.96-8.01 14.82-7.15 14.82-6.07 14.82-4.99 13.96-4.13 12.88-4.13 11.8-4.13 10.94-4.99 10.94-6.07 10.94-7.15 11.8-8.01 12.88-8.01ZM15.96-1.56L9.73-1.56 9.73 0 15.96 0ZM21.49-2.56C23.42-2.56 25-4.14 25-6.07 25-8 23.42-9.58 21.49-9.58 19.56-9.58 17.98-8 17.98-6.07 17.98-4.14 19.56-2.56 21.49-2.56ZM21.49-8.01C22.57-8.01 23.43-7.15 23.43-6.07 23.43-4.99 22.57-4.13 21.49-4.13 20.41-4.13 19.55-4.99 19.55-6.07 19.55-7.15 20.41-8.01 21.49-8.01ZM24.56-1.56L18.33-1.56 18.33 0 24.56 0ZM38.62-9.46L37.37-6.43 36.11-9.46 34.41-9.46 30.47 0 32.17 0 35.26-7.41 36.52-4.4 34.68 0 36.39 0 37.37-2.35 38.35 0 40.05 0 38.23-4.4 39.48-7.41 42.57 0 44.27 0 40.33-9.46ZM51.95-7.88C51.53-8.59 50.67-9.44 48.86-9.44 47.06-9.44 46.19-8.59 45.77-7.88 45.34-7.12 45.32-6.38 45.32-6.3L45.32 0 46.9 0 46.9-1.58 50.83-1.58 50.83 0 52.41 0 52.41-6.3C52.41-6.38 52.39-7.12 51.95-7.88ZM46.9-3.14L46.9-6.3C46.9-6.3 46.92-6.69 47.13-7.08 47.44-7.61 48.01-7.86 48.86-7.86 49.69-7.86 50.25-7.62 50.57-7.12 50.81-6.73 50.83-6.31 50.83-6.29L50.83-3.14ZM60.04-9.44L60.04-7.08 56.12-7.08 56.12-9.44 54.54-9.44 54.54 0 56.12 0 56.12-2.36 60.04-2.36 60.04 0 61.62 0 61.62-9.44ZM56.12-3.94L56.12-5.5 60.04-5.5 60.04-3.94ZM70.24 0L70.24 1.44 71.71 1.44 71.71-1.44 70.62-1.44 70.62-9.44 67.26-9.44C65.36-9.44 64.09-8.24 64.09-6.3L64.09-2.32C64.09-1.62 63.7-1.47 63.37-1.44L62.89-1.44 62.89 1.44 64.36 1.44 64.36 0ZM65.67-2.32L65.67-6.3C65.67-7.35 66.3-7.92 67.31-7.92L69-7.92 69-1.44 65.4-1.44C65.6-1.75 65.67-2.09 65.67-2.32ZM79.98-7.88C79.56-8.59 78.7-9.44 76.89-9.44 75.09-9.44 74.22-8.59 73.8-7.88 73.37-7.12 73.35-6.38 73.35-6.3L73.35 0 74.93 0 74.93-1.58 78.86-1.58 78.86 0 80.44 0 80.44-6.3C80.44-6.38 80.42-7.12 79.98-7.88ZM74.93-3.14L74.93-6.3C74.93-6.3 74.95-6.69 75.16-7.08 75.47-7.61 76.04-7.86 76.89-7.86 77.72-7.86 78.28-7.62 78.6-7.12 78.84-6.73 78.86-6.31 78.86-6.29L78.86-3.14ZM85.71-9.44L82.57-9.44 82.57-7.86 84.06-5.5 82.57-5.5 82.57 0 84.15 0 84.15-3.94 85.71-3.94C85.71-3.94 88.85-3.94 88.85-6.69 88.85-9.44 85.71-9.44 85.71-9.44ZM85.91-5.52L84.44-7.86 85.71-7.86C85.71-7.86 87.29-7.86 87.29-6.69 87.29-5.77 86.33-5.57 85.91-5.52ZM90.46 0L92.08 0 96.77-6.97 96.77 0 98.38 0 98.38-9.44 96.76-9.44 92.05-2.59 92.05-9.44 90.46-9.44ZM105.94-9.44L105.94-7.08 102.02-7.08 102.02-9.44 100.44-9.44 100.44 0 102.02 0 102.02-2.36 105.94-2.36 105.94 0 107.52 0 107.52-9.44ZM102.02-3.94L102.02-5.5 105.94-5.5 105.94-3.94ZM112.78 0C112.96 0 115.97 0 115.97-2.77 115.97-5.53 113.09-5.53 112.78-5.53L111.21-5.53 111.21-9.44 109.63-9.44 109.63 0ZM112.78-3.98C113.12-3.98 114.36-3.95 114.36-2.77 114.36-1.58 113-1.58 112.78-1.58L111.21-1.58 111.21-3.98ZM118.93-9.44L117.36-9.44 117.36 0 118.93 0Z" transform="translate(-0.7699999809265137, 9.579999923706055)"></path></g> <!----> <!----> <!----> <!----> <!----> <!----> <g data-gra="path-name-1" fill="#EB9144" transform="translate(0,14.020000457763672)"><g transform="scale(1)"><path d="M1.09 0L2.71 0 7.41-6.97 7.41 0 9.01 0 9.01-9.44 7.39-9.44 2.68-2.59 2.68-9.44 1.09-9.44ZM22.35-7.88C21.93-8.59 21.07-9.44 19.26-9.44 17.47-9.44 16.59-8.59 16.17-7.88 15.74-7.12 15.73-6.38 15.73-6.3L15.73 0 17.31 0 17.31-1.58 21.23-1.58 21.23 0 22.81 0 22.81-6.3C22.81-6.38 22.8-7.12 22.35-7.88ZM17.31-3.14L17.31-6.3C17.31-6.3 17.32-6.69 17.54-7.08 17.85-7.61 18.41-7.86 19.26-7.86 20.1-7.86 20.65-7.62 20.98-7.12 21.22-6.73 21.23-6.31 21.23-6.29L21.23-3.14ZM24.97-9.44L24.97 0 26.55 0 26.55-7.89 30.47-7.89 30.47 0 32.05 0 32.05-9.44ZM40.35-7.86L40.35-9.44 34.18-9.44 34.18 0 40.35 0 40.35-1.58 35.76-1.58 35.76-2.89 40.21-2.89 40.21-4.33 35.76-4.33 35.76-5.25 40.21-5.25 40.21-6.69 35.76-6.69 35.76-7.86ZM41.38 0.07C43.93 0.26 44.08-1.58 44.08-2.35L44.08-6.3C44.08-7.35 44.61-7.92 45.62-7.92L47.31-7.92 47.31 0 48.93 0 48.93-9.44 45.57-9.44C43.66-9.44 42.5-8.24 42.5-6.3L42.5-2.35C42.5-1.35 41.6-1.47 41.38-1.5ZM54.23 0C54.4 0 57.41 0 57.41-2.77 57.41-5.53 54.54-5.53 54.23-5.53L52.65-5.53 52.65-9.44 51.07-9.44 51.07 0ZM54.23-3.98C54.56-3.98 55.8-3.95 55.8-2.77 55.8-1.58 54.44-1.58 54.23-1.58L52.65-1.58 52.65-3.98ZM63.26-1.58C61.52-1.58 60.12-2.98 60.12-4.72 60.12-6.46 61.52-7.86 63.26-7.86 64.13-7.86 64.92-7.51 65.49-6.95L66.6-8.05C65.75-8.92 64.57-9.44 63.26-9.44 60.66-9.44 58.54-7.32 58.54-4.72 58.54-2.12 60.66 0 63.26 0 64.57 0 65.75-0.53 66.6-1.38L65.49-2.5C64.92-1.93 64.13-1.58 63.26-1.58ZM64.71-4.72C64.71-3.93 64.06-3.26 63.25-3.26 62.46-3.26 61.79-3.93 61.79-4.72 61.79-5.53 62.46-6.18 63.25-6.18 64.06-6.18 64.71-5.53 64.71-4.72ZM68.19 0L69.81 0 74.5-6.97 74.5 0 76.11 0 76.11-9.44 74.49-9.44 69.78-2.59 69.78-9.44 68.19-9.44ZM83.67-9.44L83.67-7.08 79.75-7.08 79.75-9.44 78.17-9.44 78.17 0 79.75 0 79.75-2.36 83.67-2.36 83.67 0 85.25 0 85.25-9.44ZM79.75-3.94L79.75-5.5 83.67-5.5 83.67-3.94ZM90.51 0C90.69 0 93.7 0 93.7-2.77 93.7-5.53 90.82-5.53 90.51-5.53L88.93-5.53 88.93-9.44 87.36-9.44 87.36 0ZM90.51-3.98C90.85-3.98 92.09-3.95 92.09-2.77 92.09-1.58 90.73-1.58 90.51-1.58L88.93-1.58 88.93-3.98ZM96.66-9.44L95.09-9.44 95.09 0 96.66 0Z" transform="translate(-1.090000033378601, 9.4399995803833)"></path></g></g></g></g> <!----></g></g>
</svg>

